<svg width="24" height="24" viewBox="0 0 24 24" fill="none" xmlns="http://www.w3.org/2000/svg">
<rect width="24" height="24" rx="12" fill="white" fill-opacity="0.3"/>
<path d="M10.499 18C8.30353 18 7 16.5712 7 14.7441C7 11.6054 10.0416 10.3874 13.7006 10.2703L15.8046 10.2L15.9647 9.45045C16.0104 9.19279 16.0561 8.93514 16.0561 8.3964C16.0561 7.41261 15.3472 6.66306 13.7692 6.66306C12.9917 6.66306 11.5967 6.75676 9.85863 7.62342L9.42412 6.17117C10.7277 5.37477 12.4428 5 13.8836 5C16.8108 5 18 6.52252 18 8.3964C18 9.07568 17.9314 9.56757 17.817 10.0829L16.1933 17.7658H14.7297L14.7069 15.9856H14.6154C13.2661 17.3676 12.1455 18 10.499 18ZM10.8877 16.3369C12.9688 16.3369 14.9127 14.3928 15.3243 12.4018L15.4844 11.6288L13.6549 11.6991C11.0936 11.7928 9.08108 12.4955 9.08108 14.5802C9.08108 15.6108 9.83576 16.3369 10.8877 16.3369Z" fill="white"/>
</svg>
