<svg width="24" height="24" viewBox="0 0 24 24" fill="none" xmlns="http://www.w3.org/2000/svg">
<rect width="24" height="24" rx="12" fill="white" fill-opacity="0.3"/>
<path d="M7 12.4963C7 12.7745 6.77449 13 6.49631 13C6.21813 13 5.99262 12.7745 5.99262 12.4963V6.94373C5.99262 6.92446 5.977 6.90884 5.95773 6.90884C5.95158 6.90884 5.94554 6.91047 5.94022 6.91356L4.57167 7.70814C4.31795 7.85545 4 7.6724 4 7.37902C4 7.24355 4.07201 7.11829 4.18908 7.05013L5.80758 6.10774C5.92877 6.03718 6.0665 6 6.20674 6C6.64484 6 7 6.35516 7 6.79326V12.4963Z" fill="white"/>
<path d="M16.0033 14.5654C16.0012 14.4413 16.0514 14.322 16.1416 14.2367L18.6221 11.891C18.9653 11.5604 19.2272 11.2934 19.4076 11.0899C19.5916 10.8865 19.7314 10.6926 19.827 10.5082C19.9225 10.3206 19.9703 10.1235 19.9703 9.91689C19.9703 9.68483 19.903 9.48138 19.7686 9.30654C19.6341 9.12852 19.4501 8.99024 19.2166 8.89169C18.9866 8.79314 18.7282 8.74387 18.4416 8.74387C18.1408 8.74387 17.8772 8.79791 17.6507 8.90599C17.4278 9.01408 17.2544 9.16667 17.1306 9.36376C17.084 9.43661 17.0463 9.51395 17.0172 9.59577C16.9335 9.83162 16.7419 10.0409 16.4916 10.0409C16.2429 10.0409 16.0338 9.83784 16.0864 9.59476C16.1347 9.37179 16.2227 9.16604 16.3503 8.97752C16.5626 8.66916 16.8546 8.42916 17.2261 8.25749C17.5977 8.08583 18.0134 8 18.4735 8C18.9299 8 19.3386 8.08424 19.6996 8.25272C20.064 8.42121 20.3489 8.65168 20.5541 8.94414C20.7594 9.2366 20.862 9.56085 20.862 9.91689C20.8585 10.1807 20.8036 10.4335 20.6975 10.6751C20.5948 10.9135 20.4179 11.1789 20.1667 11.4714C19.9154 11.7639 19.5598 12.1231 19.0998 12.549L17.3504 14.168C17.3422 14.1756 17.3376 14.1861 17.3376 14.1972C17.3376 14.2192 17.3554 14.2371 17.3774 14.2371H20.6185C20.8292 14.2371 21 14.4078 21 14.6185C21 14.8292 20.8292 15 20.6185 15H16.4453C16.2041 15 16.0074 14.8066 16.0033 14.5654Z" fill="white"/>
<path d="M11.5 19C11.0271 19 10.6038 18.9247 10.2302 18.7742C9.85979 18.6237 9.56548 18.412 9.34722 18.1391C9.23024 17.9912 9.1427 17.832 9.08462 17.6615C9.00055 17.4148 9.21661 17.1935 9.47726 17.1935C9.71741 17.1935 9.9049 17.39 10.0277 17.5963C10.0595 17.6498 10.0972 17.7005 10.1409 17.7487C10.2864 17.9055 10.4749 18.0278 10.7063 18.1156C10.9411 18.2034 11.2024 18.2473 11.4901 18.2473C11.8042 18.2473 12.0853 18.1971 12.3333 18.0968C12.5847 17.9964 12.7798 17.8553 12.9187 17.6734C13.0575 17.4915 13.127 17.2845 13.127 17.0524C13.1237 16.8047 13.0542 16.5851 12.9187 16.3938C12.7864 16.1994 12.588 16.0488 12.3234 15.9422C12.0589 15.8356 11.7447 15.7823 11.381 15.7823H11.1673C10.962 15.7823 10.7956 15.6159 10.7956 15.4106C10.7956 15.2054 10.962 15.039 11.1673 15.039H11.381C11.6687 15.039 11.9249 14.9904 12.1498 14.8931C12.378 14.7959 12.5532 14.6595 12.6756 14.4839C12.7979 14.3051 12.8591 14.1013 12.8591 13.8723C12.8591 13.6465 12.8046 13.4474 12.6954 13.2749C12.5863 13.1024 12.4309 12.9691 12.2292 12.875C12.0274 12.7809 11.791 12.7339 11.5198 12.7339C11.2619 12.737 11.0205 12.7825 10.7956 12.8703C10.5708 12.955 10.3872 13.0789 10.245 13.2419C10.1967 13.2963 10.1558 13.3539 10.1224 13.4148C10.0114 13.6169 9.83217 13.8065 9.60164 13.8065C9.35436 13.8065 9.14981 13.5969 9.22672 13.3619C9.28468 13.1848 9.37445 13.0193 9.49603 12.8656C9.71429 12.5896 10.002 12.3763 10.3591 12.2258C10.7163 12.0753 11.1065 12 11.5298 12C11.9729 12 12.3614 12.0831 12.6954 12.2493C13.0294 12.4155 13.2841 12.6382 13.4593 12.9173C13.6379 13.1965 13.7255 13.4991 13.7222 13.8253C13.7255 14.0793 13.6776 14.3114 13.5784 14.5215C13.4825 14.7285 13.3419 14.9041 13.1567 15.0484C12.9768 15.1886 12.7656 15.2932 12.5232 15.3623C12.5107 15.3659 12.502 15.3773 12.502 15.3903C12.502 15.4047 12.5126 15.4168 12.5268 15.419C12.8238 15.4644 13.0818 15.5589 13.3006 15.7023C13.5288 15.8497 13.7024 16.0394 13.8214 16.2715C13.9405 16.5036 14 16.7639 14 17.0524C14 17.4194 13.8925 17.7518 13.6776 18.0497C13.4626 18.3445 13.1634 18.5766 12.7798 18.746C12.3995 18.9153 11.9729 19 11.5 19Z" fill="white"/>
</svg>
