<svg width="120" height="120" viewBox="0 0 120 120" fill="none" xmlns="http://www.w3.org/2000/svg">
<mask id="path-1-outside-1_618_1656" maskUnits="userSpaceOnUse" x="55.2354" y="37.8232" width="11" height="46" fill="black">
<rect fill="white" x="55.2354" y="37.8232" width="11" height="46"/>
<path d="M63.577 69.6357H57.8055L57.2489 39.4014H64.1044L63.577 69.6357ZM60.6766 82.2334C59.954 82.2334 59.2704 82.0381 58.6259 81.6475C57.9813 81.2568 57.4735 80.749 57.1024 80.124C56.7313 79.4795 56.5458 78.7861 56.5458 78.0439C56.5458 77.3213 56.7313 76.6377 57.1024 75.9932C57.4735 75.3486 57.9813 74.8506 58.6259 74.499C59.2704 74.1279 59.954 73.9424 60.6766 73.9424C61.4188 73.9424 62.1024 74.1279 62.7274 74.499C63.372 74.8506 63.8798 75.3486 64.2509 75.9932C64.6415 76.6377 64.8368 77.3213 64.8368 78.0439C64.8368 78.7861 64.6415 79.4795 64.2509 80.124C63.8798 80.749 63.372 81.2568 62.7274 81.6475C62.1024 82.0381 61.4188 82.2334 60.6766 82.2334Z"/>
</mask>
<path d="M63.577 69.6357H57.8055L57.2489 39.4014H64.1044L63.577 69.6357ZM60.6766 82.2334C59.954 82.2334 59.2704 82.0381 58.6259 81.6475C57.9813 81.2568 57.4735 80.749 57.1024 80.124C56.7313 79.4795 56.5458 78.7861 56.5458 78.0439C56.5458 77.3213 56.7313 76.6377 57.1024 75.9932C57.4735 75.3486 57.9813 74.8506 58.6259 74.499C59.2704 74.1279 59.954 73.9424 60.6766 73.9424C61.4188 73.9424 62.1024 74.1279 62.7274 74.499C63.372 74.8506 63.8798 75.3486 64.2509 75.9932C64.6415 76.6377 64.8368 77.3213 64.8368 78.0439C64.8368 78.7861 64.6415 79.4795 64.2509 80.124C63.8798 80.749 63.372 81.2568 62.7274 81.6475C62.1024 82.0381 61.4188 82.2334 60.6766 82.2334Z" fill="#98B6FF"/>
<path d="M63.577 69.6357V70.6357H64.5597L64.5769 69.6532L63.577 69.6357ZM57.8055 69.6357L56.8057 69.6541L56.8238 70.6357H57.8055V69.6357ZM57.2489 39.4014V38.4014H56.2303L56.2491 39.4198L57.2489 39.4014ZM64.1044 39.4014L65.1042 39.4188L65.122 38.4014H64.1044V39.4014ZM57.1024 80.124L56.2357 80.623L56.2426 80.6346L57.1024 80.124ZM58.6259 74.499L59.1047 75.3769L59.1148 75.3714L59.1248 75.3656L58.6259 74.499ZM62.7274 74.499L62.2169 75.3589L62.2326 75.3682L62.2486 75.3769L62.7274 74.499ZM64.2509 75.9932L63.3842 76.4921L63.3898 76.5019L63.3957 76.5115L64.2509 75.9932ZM64.2509 80.124L63.3956 79.6057L63.391 79.6135L64.2509 80.124ZM62.7274 81.6475L62.2091 80.7922L62.1974 80.7995L62.7274 81.6475ZM63.577 69.6357V68.6357H57.8055V69.6357V70.6357H63.577V69.6357ZM57.8055 69.6357L58.8054 69.6173L58.2487 39.383L57.2489 39.4014L56.2491 39.4198L56.8057 69.6541L57.8055 69.6357ZM57.2489 39.4014V40.4014H64.1044V39.4014V38.4014H57.2489V39.4014ZM64.1044 39.4014L63.1045 39.3839L62.5772 69.6183L63.577 69.6357L64.5769 69.6532L65.1042 39.4188L64.1044 39.4014ZM60.6766 82.2334V81.2334C60.1448 81.2334 59.6394 81.0924 59.1442 80.7923L58.6259 81.6475L58.1076 82.5027C58.9014 82.9838 59.7632 83.2334 60.6766 83.2334V82.2334ZM58.6259 81.6475L59.1442 80.7923C58.6347 80.4835 58.2464 80.092 57.9623 79.6135L57.1024 80.124L56.2426 80.6346C56.7006 81.406 57.328 82.0302 58.1076 82.5027L58.6259 81.6475ZM57.1024 80.124L57.969 79.6251C57.6851 79.132 57.5458 78.6106 57.5458 78.0439H56.5458H55.5458C55.5458 78.9616 55.7775 79.827 56.2358 80.623L57.1024 80.124ZM56.5458 78.0439H57.5458C57.5458 77.5017 57.6827 76.9895 57.969 76.4921L57.1024 75.9932L56.2358 75.4942C55.78 76.2859 55.5458 77.1409 55.5458 78.0439H56.5458ZM57.1024 75.9932L57.969 76.4921C58.2495 76.005 58.6241 75.6391 59.1047 75.3769L58.6259 74.499L58.147 73.6211C57.3386 74.0621 56.6975 74.6923 56.2358 75.4942L57.1024 75.9932ZM58.6259 74.499L59.1248 75.3656C59.6222 75.0793 60.1344 74.9424 60.6766 74.9424V73.9424V72.9424C59.7736 72.9424 58.9186 73.1766 58.1269 73.6324L58.6259 74.499ZM60.6766 73.9424V74.9424C61.2431 74.9424 61.7498 75.0815 62.2169 75.3589L62.7274 74.499L63.238 73.6392C62.4551 73.1743 61.5945 72.9424 60.6766 72.9424V73.9424ZM62.7274 74.499L62.2486 75.3769C62.7292 75.6391 63.1038 76.005 63.3842 76.4921L64.2509 75.9932L65.1175 75.4942C64.6558 74.6923 64.0147 74.0621 63.2063 73.6211L62.7274 74.499ZM64.2509 75.9932L63.3957 76.5115C63.6958 77.0067 63.8368 77.5121 63.8368 78.0439H64.8368H65.8368C65.8368 77.1305 65.5872 76.2687 65.1061 75.4749L64.2509 75.9932ZM64.8368 78.0439H63.8368C63.8368 78.6004 63.6931 79.1149 63.3957 79.6057L64.2509 80.124L65.1061 80.6423C65.5899 79.8441 65.8368 78.9718 65.8368 78.0439H64.8368ZM64.2509 80.124L63.391 79.6135C63.1069 80.092 62.7186 80.4835 62.2091 80.7923L62.7274 81.6475L63.2457 82.5027C64.0253 82.0302 64.6526 81.406 65.1107 80.6346L64.2509 80.124ZM62.7274 81.6475L62.1974 80.7995C61.7325 81.09 61.2328 81.2334 60.6766 81.2334V82.2334V83.2334C61.6049 83.2334 62.4723 82.9862 63.2574 82.4955L62.7274 81.6475Z" fill="#98B6FF" mask="url(#path-1-outside-1_618_1656)"/>
<circle cx="60" cy="60" r="57.5" stroke="#98B6FF" stroke-width="5"/>
</svg>
