<svg width="17" height="20" viewBox="0 0 17 20" fill="none" xmlns="http://www.w3.org/2000/svg">
<path d="M1.5 15.5C1.5 17.386 1.50019 17.828 2.08619 18.414C2.67219 19 3.61419 19 5.50019 19H11.5002C13.3862 19 14.3282 19 14.9142 18.414C15.5002 17.828 15.5002 16.886 15.5002 15V10.914V6.828C15.5002 6.42 15.5002 6.215 15.4242 6.032C15.3482 5.849 15.2042 5.703 14.9142 5.414L11.0862 1.586C10.7962 1.296 10.6522 1.152 10.4692 1.076C10.2852 1 10.0802 1 9.67219 1H5.50019C3.61419 1 2.67219 1 2.08619 1.586C1.50019 2.172 1.50019 3.114 1.50019 5V11.5" stroke="#488BFF" stroke-width="2" stroke-linecap="round"/>
<path d="M9.5 1V5C9.5 5.943 9.5 6.414 9.793 6.707C10.086 7 10.557 7 11.5 7H15.5" stroke="#488BFF" stroke-width="2"/>
</svg>
