<svg width="274" height="258" viewBox="0 0 274 258" fill="none" xmlns="http://www.w3.org/2000/svg">
<g filter="url(#filter0_d_199_165)">
<path d="M16.8 97.7686L150.09 104.203L208.188 151.211L203.517 247.97L10.0001 238.628L16.8 97.7686Z" fill="white"/>
<path d="M170.851 160.54L150.09 105.438L208.188 152.446L170.851 160.54Z" fill="#3B3D40"/>
<rect x="33.0503" y="164.185" width="154.219" height="1.54994" transform="rotate(2.76381 33.0503 164.185)" fill="#3B3D40"/>
<rect x="32.4524" y="176.57" width="154.219" height="1.54994" transform="rotate(2.76381 32.4524 176.57)" fill="#3B3D40"/>
<rect x="31.8547" y="188.955" width="154.219" height="1.54994" transform="rotate(2.76381 31.8547 188.955)" fill="#3B3D40"/>
<rect x="31.2568" y="201.34" width="154.219" height="1.54994" transform="rotate(2.76381 31.2568 201.34)" fill="#3B3D40"/>
<rect x="30.6589" y="213.725" width="154.219" height="1.54994" transform="rotate(2.76381 30.6589 213.725)" fill="#3B3D40"/>
</g>
<g filter="url(#filter1_d_199_165)">
<path d="M61.9543 126.421L191.674 140.826L250.289 147.335L254.325 110.992L263.18 31.2521L74.8454 10.3375L61.9543 126.421Z" fill="white"/>
</g>
<defs>
<filter id="filter0_d_199_165" x="0" y="87.7686" width="218.188" height="170.201" filterUnits="userSpaceOnUse" color-interpolation-filters="sRGB">
<feFlood flood-opacity="0" result="BackgroundImageFix"/>
<feColorMatrix in="SourceAlpha" type="matrix" values="0 0 0 0 0 0 0 0 0 0 0 0 0 0 0 0 0 0 127 0" result="hardAlpha"/>
<feOffset/>
<feGaussianBlur stdDeviation="5"/>
<feComposite in2="hardAlpha" operator="out"/>
<feColorMatrix type="matrix" values="0 0 0 0 0.678333 0 0 0 0 0.693134 0 0 0 0 0.703707 0 0 0 0.2 0"/>
<feBlend mode="normal" in2="BackgroundImageFix" result="effect1_dropShadow_199_165"/>
<feBlend mode="normal" in="SourceGraphic" in2="effect1_dropShadow_199_165" result="shape"/>
</filter>
<filter id="filter1_d_199_165" x="51.9543" y="0.337891" width="221.225" height="156.998" filterUnits="userSpaceOnUse" color-interpolation-filters="sRGB">
<feFlood flood-opacity="0" result="BackgroundImageFix"/>
<feColorMatrix in="SourceAlpha" type="matrix" values="0 0 0 0 0 0 0 0 0 0 0 0 0 0 0 0 0 0 127 0" result="hardAlpha"/>
<feOffset/>
<feGaussianBlur stdDeviation="5"/>
<feComposite in2="hardAlpha" operator="out"/>
<feColorMatrix type="matrix" values="0 0 0 0 0.678333 0 0 0 0 0.693134 0 0 0 0 0.703707 0 0 0 0.2 0"/>
<feBlend mode="normal" in2="BackgroundImageFix" result="effect1_dropShadow_199_165"/>
<feBlend mode="normal" in="SourceGraphic" in2="effect1_dropShadow_199_165" result="shape"/>
</filter>
</defs>
</svg>
