<svg width="29" height="27" viewBox="0 0 29 27" fill="none" xmlns="http://www.w3.org/2000/svg">
<path opacity="0.2" d="M0 12.6562C0 11.9849 0.269591 11.3411 0.749463 10.8664C1.22934 10.3917 1.88018 10.125 2.55882 10.125H26.4412C27.1198 10.125 27.7707 10.3917 28.2505 10.8664C28.7304 11.3411 29 11.9849 29 12.6562C29 13.3276 28.7304 13.9714 28.2505 14.4461C27.7707 14.9208 27.1198 15.1875 26.4412 15.1875H2.55882C1.88018 15.1875 1.22934 14.9208 0.749463 14.4461C0.269591 13.9714 0 13.3276 0 12.6562ZM14.5 6.75C15.4049 6.75 16.2727 6.39442 16.9125 5.76149C17.5523 5.12855 17.9118 4.2701 17.9118 3.375C17.9118 2.47989 17.5523 1.62145 16.9125 0.988514C16.2727 0.355579 15.4049 0 14.5 0C13.5951 0 12.7273 0.355579 12.0875 0.988514C11.4477 1.62145 11.0882 2.47989 11.0882 3.375C11.0882 4.2701 11.4477 5.12855 12.0875 5.76149C12.7273 6.39442 13.5951 6.75 14.5 6.75ZM17.9118 23.625C17.9118 24.5201 17.5523 25.3786 16.9125 26.0115C16.2727 26.6444 15.4049 27 14.5 27C13.5951 27 12.7273 26.6444 12.0875 26.0115C11.4477 25.3786 11.0882 24.5201 11.0882 23.625C11.0882 22.7299 11.4477 21.8715 12.0875 21.2385C12.7273 20.6056 13.5951 20.25 14.5 20.25C15.4049 20.25 16.2727 20.6056 16.9125 21.2385C17.5523 21.8715 17.9118 22.7299 17.9118 23.625Z" fill="white" fill-opacity="0.8"/>
</svg>
