<svg width="28" height="28" viewBox="0 0 28 28" fill="none" xmlns="http://www.w3.org/2000/svg">
<path opacity="0.2" d="M14 0C14.6552 0 15.2836 0.260293 15.747 0.723618C16.2103 1.18694 16.4706 1.81535 16.4706 2.47059V11.5294H25.5294C26.1847 11.5294 26.8131 11.7897 27.2764 12.253C27.7397 12.7164 28 13.3448 28 14C28 14.6552 27.7397 15.2836 27.2764 15.747C26.8131 16.2103 26.1847 16.4706 25.5294 16.4706H16.4706V25.5294C16.4706 26.1847 16.2103 26.8131 15.747 27.2764C15.2836 27.7397 14.6552 28 14 28C13.3448 28 12.7164 27.7397 12.253 27.2764C11.7897 26.8131 11.5294 26.1847 11.5294 25.5294V16.4706H2.47059C1.81535 16.4706 1.18694 16.2103 0.723618 15.747C0.260293 15.2836 0 14.6552 0 14C0 13.3448 0.260293 12.7164 0.723618 12.253C1.18694 11.7897 1.81535 11.5294 2.47059 11.5294H11.5294V2.47059C11.5294 1.81535 11.7897 1.18694 12.253 0.723618C12.7164 0.260293 13.3448 0 14 0Z" fill="white" fill-opacity="0.8"/>
</svg>
