<svg width="168" height="164" viewBox="0 0 168 164" fill="none" xmlns="http://www.w3.org/2000/svg">
<path d="M0 10C0 4.47715 4.47715 0 10 0H158C163.523 0 168 4.47715 168 10V154C168 159.523 163.523 164 158 164H10C4.47715 164 0 159.523 0 154V10Z" fill="#C4DBFF"/>
<path d="M16 24C16 17.3726 21.3726 12 28 12C34.6274 12 40 17.3726 40 24C40 30.6274 34.6274 36 28 36C21.3726 36 16 30.6274 16 24Z" fill="white"/>
<path d="M24.3516 28.9688L28.2109 24.9062C28.7161 24.3646 29.1016 23.9271 29.3672 23.5938C29.638 23.2604 29.8438 22.9427 29.9844 22.6406C30.125 22.3333 30.1953 22.0104 30.1953 21.6719C30.1953 21.2917 30.0964 20.9583 29.8984 20.6719C29.7005 20.3802 29.4297 20.1536 29.0859 19.9922C28.7474 19.8307 28.3672 19.75 27.9453 19.75C27.5026 19.75 27.1146 19.8385 26.7812 20.0156C26.4531 20.1927 26.1979 20.4427 26.0156 20.7656C25.8333 21.0833 25.7422 21.4531 25.7422 21.875H24.4141C24.4089 21.2188 24.5599 20.638 24.8672 20.1328C25.1797 19.6276 25.6094 19.2344 26.1562 18.9531C26.7031 18.6719 27.3151 18.5312 27.9922 18.5312C28.6641 18.5312 29.2656 18.6693 29.7969 18.9453C30.3333 19.2214 30.7526 19.599 31.0547 20.0781C31.3568 20.5573 31.5078 21.0885 31.5078 21.6719C31.5026 22.1042 31.4219 22.5182 31.2656 22.9141C31.1146 23.3047 30.8542 23.7396 30.4844 24.2188C30.1146 24.6979 29.5911 25.2865 28.9141 25.9844L26.3203 28.6562V28.75H31.7109V30H24.3672L24.3516 28.9688Z" fill="#488BFF"/>
<rect x="48" y="18" width="104" height="12" rx="6" fill="white"/>
<rect x="16" y="48" width="135" height="64" rx="5" fill="white"/>
<rect x="16" y="124" width="136" height="8" rx="4" fill="white"/>
<rect x="16" y="144" width="136" height="8" rx="4" fill="white"/>
</svg>
