<svg width="26" height="30" viewBox="0 0 26 30" fill="none" xmlns="http://www.w3.org/2000/svg">
<path d="M13 12.25C16.0376 12.25 18.5 9.78757 18.5 6.75C18.5 3.71243 16.0376 1.25 13 1.25C9.96243 1.25 7.5 3.71243 7.5 6.75C7.5 9.78757 9.96243 12.25 13 12.25Z" stroke="white" stroke-width="2.5"/>
<path d="M2.00275 23.25C2.00092 23.0245 2 22.7953 2 22.5625C2 19.1456 6.92525 16.375 13 16.375C19.0748 16.375 24 19.1456 24 22.5625C24 25.9794 24 28.75 13 28.75C9.93238 28.75 7.72 28.5341 6.125 28.1491" stroke="white" stroke-width="2.5" stroke-linecap="round"/>
</svg>
