<svg width="22" height="22" viewBox="0 0 22 22" fill="none" xmlns="http://www.w3.org/2000/svg">
<path opacity="0.2" d="M0.615125 3.34663C0.425243 3.1697 0.272943 2.95633 0.167311 2.71926C0.0616789 2.48219 0.00487936 2.22627 0.000300779 1.96677C-0.0042778 1.70727 0.0434579 1.4495 0.140661 1.20885C0.237864 0.968198 0.382542 0.749593 0.566065 0.56607C0.749588 0.382547 0.968196 0.237866 1.20885 0.140663C1.4495 0.0434597 1.70726 -0.00427781 1.96676 0.000300769C2.22626 0.00487935 2.48218 0.0616787 2.71926 0.167311C2.95633 0.272942 3.1697 0.425248 3.34663 0.61513L11 8.2685L18.6534 0.61513C18.8303 0.425248 19.0437 0.272942 19.2807 0.167311C19.5178 0.0616787 19.7737 0.00487935 20.0332 0.000300769C20.2927 -0.00427781 20.5505 0.0434597 20.7912 0.140663C21.0318 0.237866 21.2504 0.382547 21.4339 0.56607C21.6175 0.749593 21.7621 0.968198 21.8593 1.20885C21.9565 1.4495 22.0043 1.70727 21.9997 1.96677C21.9951 2.22627 21.9383 2.48219 21.8327 2.71926C21.7271 2.95633 21.5748 3.1697 21.3849 3.34663L13.7315 11L21.3849 18.6534C21.5748 18.8303 21.7271 19.0437 21.8327 19.2807C21.9383 19.5178 21.9951 19.7737 21.9997 20.0332C22.0043 20.2927 21.9565 20.5505 21.8593 20.7912C21.7621 21.0318 21.6175 21.2504 21.4339 21.4339C21.2504 21.6175 21.0318 21.7621 20.7912 21.8593C20.5505 21.9565 20.2927 22.0043 20.0332 21.9997C19.7737 21.9951 19.5178 21.9383 19.2807 21.8327C19.0437 21.7271 18.8303 21.5748 18.6534 21.3849L11 13.7315L3.34663 21.3849C2.98026 21.7263 2.49569 21.9121 1.99499 21.9033C1.4943 21.8945 1.01658 21.6916 0.662484 21.3375C0.308386 20.9834 0.105553 20.5057 0.0967193 20.005C0.0878851 19.5043 0.273739 19.0197 0.615125 18.6534L8.26849 11L0.615125 3.34663Z" fill="white" fill-opacity="0.8"/>
</svg>
