<svg width="400" height="438" viewBox="0 0 400 438" fill="none" xmlns="http://www.w3.org/2000/svg">
<path opacity="0.5" d="M395.359 286.882L351.126 242.641C349.655 241.169 347.908 240.002 345.986 239.206C344.064 238.41 342.004 238 339.924 238C337.843 238 335.783 238.41 333.861 239.206C331.939 240.002 330.193 241.169 328.722 242.641L206.643 364.723C205.166 366.188 203.995 367.933 203.198 369.855C202.4 371.777 201.993 373.838 202 375.919V420.161C202 424.361 203.669 428.39 206.64 431.361C209.61 434.331 213.639 436 217.84 436H262.084C264.165 436.007 266.226 435.6 268.149 434.802C270.071 434.005 271.815 432.834 273.281 431.357L395.359 309.285C396.831 307.814 397.998 306.068 398.794 304.146C399.59 302.224 400 300.164 400 298.083C400 296.003 399.59 293.943 398.794 292.021C397.998 290.099 396.831 288.353 395.359 286.882ZM221.117 372.642L304.961 288.802L321.485 305.325L237.64 389.155L221.117 372.642ZM217.84 391.759L246.244 420.161H217.84V391.759ZM265.361 416.884L248.838 400.361L332.682 316.521L349.205 333.044L265.361 416.884ZM360.402 321.847L316.158 277.606L339.919 253.847L384.162 298.078L360.402 321.847Z" fill="white"/>
<path opacity="0.5" d="M173.5 428C173.5 428 38 419 38 358C38 272.5 233.866 293 246.5 203C259.134 113 -25.5 10 -25.5 10" stroke="url(#paint0_linear_199_167)" stroke-width="20" stroke-linecap="round" stroke-linejoin="round"/>
<path opacity="0.2" d="M351 173.656C351 172.985 351.27 172.341 351.749 171.866C352.229 171.392 352.88 171.125 353.559 171.125H377.441C378.12 171.125 378.771 171.392 379.251 171.866C379.73 172.341 380 172.985 380 173.656C380 174.328 379.73 174.971 379.251 175.446C378.771 175.921 378.12 176.188 377.441 176.188H353.559C352.88 176.188 352.229 175.921 351.749 175.446C351.27 174.971 351 174.328 351 173.656ZM365.5 167.75C366.405 167.75 367.273 167.394 367.912 166.761C368.552 166.129 368.912 165.27 368.912 164.375C368.912 163.48 368.552 162.621 367.912 161.989C367.273 161.356 366.405 161 365.5 161C364.595 161 363.727 161.356 363.088 161.989C362.448 162.621 362.088 163.48 362.088 164.375C362.088 165.27 362.448 166.129 363.088 166.761C363.727 167.394 364.595 167.75 365.5 167.75ZM368.912 184.625C368.912 185.52 368.552 186.379 367.912 187.011C367.273 187.644 366.405 188 365.5 188C364.595 188 363.727 187.644 363.088 187.011C362.448 186.379 362.088 185.52 362.088 184.625C362.088 183.73 362.448 182.871 363.088 182.239C363.727 181.606 364.595 181.25 365.5 181.25C366.405 181.25 367.273 181.606 367.912 182.239C368.552 182.871 368.912 183.73 368.912 184.625Z" fill="white" fill-opacity="0.8"/>
<path opacity="0.2" d="M386 52C386.655 52 387.284 52.2603 387.747 52.7236C388.21 53.1869 388.471 53.8153 388.471 54.4706V63.5294H397.529C398.185 63.5294 398.813 63.7897 399.276 64.253C399.74 64.7164 400 65.3448 400 66C400 66.6552 399.74 67.2836 399.276 67.747C398.813 68.2103 398.185 68.4706 397.529 68.4706H388.471V77.5294C388.471 78.1847 388.21 78.8131 387.747 79.2764C387.284 79.7397 386.655 80 386 80C385.345 80 384.716 79.7397 384.253 79.2764C383.79 78.8131 383.529 78.1847 383.529 77.5294V68.4706H374.471C373.815 68.4706 373.187 68.2103 372.724 67.747C372.26 67.2836 372 66.6552 372 66C372 65.3448 372.26 64.7164 372.724 64.253C373.187 63.7897 373.815 63.5294 374.471 63.5294H383.529V54.4706C383.529 53.8153 383.79 53.1869 384.253 52.7236C384.716 52.2603 385.345 52 386 52Z" fill="white" fill-opacity="0.8"/>
<path opacity="0.2" d="M325.471 122C324.815 122 324.187 122.263 323.724 122.732C323.26 123.201 323 123.837 323 124.5C323 125.163 323.26 125.799 323.724 126.268C324.187 126.737 324.815 127 325.471 127H348.529C349.185 127 349.813 126.737 350.276 126.268C350.74 125.799 351 125.163 351 124.5C351 123.837 350.74 123.201 350.276 122.732C349.813 122.263 349.185 122 348.529 122H325.471Z" fill="white" fill-opacity="0.8"/>
<path opacity="0.2" d="M261.615 83.3466C261.425 83.1697 261.273 82.9563 261.167 82.7193C261.062 82.4822 261.005 82.2263 261 81.9668C260.996 81.7073 261.043 81.4495 261.141 81.2088C261.238 80.9682 261.383 80.7496 261.566 80.5661C261.75 80.3825 261.968 80.2379 262.209 80.1407C262.449 80.0435 262.707 79.9957 262.967 80.0003C263.226 80.0049 263.482 80.0617 263.719 80.1673C263.956 80.2729 264.17 80.4252 264.347 80.6151L272 88.2685L279.653 80.6151C279.83 80.4252 280.044 80.2729 280.281 80.1673C280.518 80.0617 280.774 80.0049 281.033 80.0003C281.293 79.9957 281.551 80.0435 281.791 80.1407C282.032 80.2379 282.25 80.3825 282.434 80.5661C282.617 80.7496 282.762 80.9682 282.859 81.2088C282.957 81.4495 283.004 81.7073 283 81.9668C282.995 82.2263 282.938 82.4822 282.833 82.7193C282.727 82.9563 282.575 83.1697 282.385 83.3466L274.732 91L282.385 98.6534C282.575 98.8303 282.727 99.0437 282.833 99.2807C282.938 99.5178 282.995 99.7737 283 100.033C283.004 100.293 282.957 100.551 282.859 100.791C282.762 101.032 282.617 101.25 282.434 101.434C282.25 101.617 282.032 101.762 281.791 101.859C281.551 101.957 281.293 102.004 281.033 102C280.774 101.995 280.518 101.938 280.281 101.833C280.044 101.727 279.83 101.575 279.653 101.385L272 93.7315L264.347 101.385C263.98 101.726 263.496 101.912 262.995 101.903C262.494 101.894 262.017 101.692 261.662 101.338C261.308 100.983 261.106 100.506 261.097 100.005C261.088 99.5043 261.274 99.0197 261.615 98.6534L269.268 91L261.615 83.3466Z" fill="white" fill-opacity="0.8"/>
<defs>
<linearGradient id="paint0_linear_199_167" x1="189.5" y1="437" x2="-21.5" y2="133" gradientUnits="userSpaceOnUse">
<stop stop-color="white"/>
<stop offset="1" stop-color="#488AFE"/>
</linearGradient>
</defs>
</svg>
