<svg width="88" height="88" viewBox="0 0 88 88" fill="none" xmlns="http://www.w3.org/2000/svg">
<rect width="88" height="88" rx="44" fill="url(#paint0_linear_123_1111)" fill-opacity="0.2"/>
<path d="M60 28C60.7956 28 61.5585 28.3163 62.1211 28.8789C62.6837 29.4415 63 30.2044 63 31V61C63.0035 61.572 62.8418 62.133 62.5342 62.6152C62.2265 63.0975 61.7858 63.4808 61.2656 63.7188C60.8692 63.9033 60.4373 63.9993 60 64C59.2958 63.9982 58.6149 63.7468 58.0781 63.291L58.0615 63.2783L52.2189 58.2425C52.0374 58.0861 51.8057 58 51.566 58H27C26.2044 58 25.4415 57.6837 24.8789 57.1211C24.3163 56.5585 24 55.7957 24 55V52C24 51.4477 24.4477 51 25 51H26C26.5523 51 27 51.4477 27 52V54C27 54.5523 27.4477 55 28 55H52.5C52.86 55.0002 53.2081 55.1297 53.4805 55.3652L58.3461 59.5705C58.9939 60.1305 60 59.6703 60 58.814V32C60 31.4477 59.5523 31 59 31H28C27.4477 31 27 31.4477 27 32V41C27 41.5523 26.5523 42 26 42H25C24.4477 42 24 41.5523 24 41V31C24 30.2044 24.3163 29.4415 24.8789 28.8789C25.4415 28.3163 26.2044 28 27 28H60Z" fill="white" fill-opacity="0.8"/>
<defs>
<linearGradient id="paint0_linear_123_1111" x1="44" y1="0" x2="44" y2="88" gradientUnits="userSpaceOnUse">
<stop stop-color="white"/>
<stop offset="1" stop-color="#7398FF"/>
</linearGradient>
</defs>
</svg>
