<svg width="198" height="198" viewBox="0 0 198 198" fill="none" xmlns="http://www.w3.org/2000/svg">
<path opacity="0.5" d="M193.359 48.8819L149.126 4.64053C147.655 3.16932 145.908 2.00228 143.986 1.20605C142.064 0.409818 140.004 0 137.924 0C135.843 0 133.783 0.409818 131.861 1.20605C129.939 2.00228 128.193 3.16932 126.722 4.64053L4.64323 126.723C3.16593 128.188 1.99469 129.933 1.19759 131.855C0.400488 133.777 -0.00656812 135.838 8.01409e-05 137.919V182.161C8.01409e-05 186.361 1.66895 190.39 4.63956 193.361C7.61017 196.331 11.6392 198 15.8403 198H60.0839C62.1648 198.007 64.2263 197.6 66.1485 196.802C68.0707 196.005 69.8153 194.834 71.2809 193.357L193.359 71.2848C194.831 69.8139 195.998 68.0676 196.794 66.1457C197.59 64.2237 198 62.1637 198 60.0834C198 58.003 197.59 55.943 196.794 54.021C195.998 52.0991 194.831 50.3528 193.359 48.8819ZM19.1172 134.642L102.961 50.8025L119.485 67.3249L35.6405 151.155L19.1172 134.642ZM15.8403 153.759L44.2437 182.161H15.8403V153.759ZM63.3608 178.884L46.8375 162.361L130.682 78.5214L147.205 95.0439L63.3608 178.884ZM158.402 83.8474L114.158 39.606L137.919 15.8469L182.162 60.0784L158.402 83.8474Z" fill="white"/>
</svg>
