<svg width="223" height="144" viewBox="0 0 223 144" fill="none" xmlns="http://www.w3.org/2000/svg">
<path d="M0 10C0 4.47715 4.47715 0 10 0H213C218.523 0 223 4.47715 223 10V134C223 139.523 218.523 144 213 144H10C4.47716 144 0 139.523 0 134V10Z" fill="#C4DBFF"/>
<path d="M16 24C16 17.3726 21.3726 12 28 12C34.6274 12 40 17.3726 40 24C40 30.6274 34.6274 36 28 36C21.3726 36 16 30.6274 16 24Z" fill="white"/>
<path d="M28.0312 30.1562C27.2865 30.1562 26.6198 30.0312 26.0312 29.7812C25.4479 29.5312 24.9844 29.1797 24.6406 28.7266C24.2969 28.2682 24.1146 27.7448 24.0938 27.1562H25.5156C25.5417 27.5104 25.6667 27.8177 25.8906 28.0781C26.1198 28.3385 26.4167 28.5417 26.7812 28.6875C27.151 28.8333 27.5625 28.9062 28.0156 28.9062C28.5104 28.9062 28.9531 28.8229 29.3438 28.6562C29.7396 28.4896 30.0469 28.2552 30.2656 27.9531C30.4844 27.651 30.5938 27.3073 30.5938 26.9219C30.5885 26.5104 30.4792 26.1458 30.2656 25.8281C30.0573 25.5052 29.7448 25.2552 29.3281 25.0781C28.9115 24.901 28.4167 24.8125 27.8438 24.8125H26.9219V23.5781H27.8438C28.2969 23.5781 28.7005 23.4974 29.0547 23.3359C29.4141 23.1745 29.6901 22.9479 29.8828 22.6562C30.0755 22.3594 30.1719 22.0208 30.1719 21.6406C30.1719 21.2656 30.0859 20.9349 29.9141 20.6484C29.7422 20.362 29.4974 20.1406 29.1797 19.9844C28.862 19.8281 28.4896 19.75 28.0625 19.75C27.6562 19.7552 27.276 19.8307 26.9219 19.9766C26.5677 20.1172 26.2786 20.3229 26.0547 20.5938C25.8307 20.8594 25.7083 21.1719 25.6875 21.5312H24.3281C24.349 20.9479 24.5312 20.4271 24.875 19.9688C25.2188 19.5104 25.6719 19.1562 26.2344 18.9062C26.7969 18.6562 27.4115 18.5312 28.0781 18.5312C28.776 18.5312 29.388 18.6693 29.9141 18.9453C30.4401 19.2214 30.8411 19.5911 31.1172 20.0547C31.3984 20.5182 31.5365 21.0208 31.5312 21.5625C31.5365 21.9844 31.4609 22.3698 31.3047 22.7188C31.1536 23.0625 30.9323 23.3542 30.6406 23.5938C30.349 23.8333 30.0052 24.0104 29.6094 24.125V24.2031C30.0938 24.276 30.513 24.4349 30.8672 24.6797C31.2266 24.9245 31.5 25.2396 31.6875 25.625C31.875 26.0104 31.9688 26.4427 31.9688 26.9219C31.9688 27.5312 31.7995 28.0833 31.4609 28.5781C31.1224 29.0677 30.651 29.4531 30.0469 29.7344C29.4479 30.0156 28.776 30.1562 28.0312 30.1562Z" fill="#488BFF"/>
<rect x="48" y="18" width="104" height="12" rx="6" fill="white"/>
<rect x="16" y="48" width="135" height="64" rx="5" fill="white"/>
<rect x="163" y="48" width="44" height="8" rx="4" fill="white"/>
<rect x="163" y="64" width="44" height="8" rx="4" fill="white"/>
<rect x="163" y="80" width="44" height="8" rx="4" fill="white"/>
<rect x="163" y="96" width="44" height="8" rx="4" fill="white"/>
<rect x="16" y="124" width="191" height="8" rx="4" fill="white"/>
</svg>
