<svg width="64" height="64" viewBox="0 0 64 64" fill="none" xmlns="http://www.w3.org/2000/svg">
<rect width="64" height="64" rx="32" fill="url(#paint0_linear_114_786)"/>
<rect x="2" y="2" width="60" height="60" rx="30" stroke="white" stroke-opacity="0.8" stroke-width="4"/>
<path d="M38.7499 23V24.125C38.5647 24.125 38.3824 24.0793 38.2191 23.9919C38.0558 23.9045 37.9167 23.7781 37.8139 23.624L38.7499 23ZM28.9699 19.847C28.7068 19.9876 28.3985 20.018 28.113 19.9313C27.9716 19.8884 27.8401 19.8181 27.7259 19.7244C27.6117 19.6306 27.5171 19.5153 27.4474 19.385C27.3778 19.2547 27.3345 19.112 27.3201 18.9649C27.3056 18.8179 27.3202 18.6694 27.3631 18.5281C27.406 18.3867 27.4763 18.2552 27.5701 18.141C27.6638 18.0268 27.7791 17.9321 27.9094 17.8625L28.9699 19.847ZM16.1809 26.9315C16.2677 26.6459 16.4643 26.4064 16.7276 26.2657C16.9909 26.1251 17.2993 26.0948 17.5849 26.1815C17.8706 26.2682 18.1101 26.4649 18.2507 26.7282C18.3914 26.9915 18.4217 27.2999 18.3349 27.5855L16.1809 26.9315ZM18.1249 31.25V34.25H15.8749V31.25H18.1249ZM28.2499 44.375H35.7499V46.625H28.2499V44.375ZM45.8749 34.25V31.25H48.1249V34.25H45.8749ZM31.4599 17.375H32.5399V19.625H31.4599V17.375ZM38.4679 20.5475L39.6874 22.376L37.8139 23.624L36.5959 21.7955L38.4679 20.5475ZM32.5399 17.375C33.3049 17.375 33.9559 17.375 34.4959 17.4245C35.0599 17.477 35.5834 17.5895 36.0919 17.8625L35.0299 19.847C34.8769 19.7645 34.6759 19.7 34.2874 19.664C33.8749 19.6265 33.3469 19.625 32.5399 19.625V17.375ZM36.5944 21.7955C36.1474 21.125 35.8534 20.6855 35.5939 20.3645C35.3479 20.0615 35.1829 19.9295 35.0284 19.847L36.0919 17.8625C36.6019 18.1355 36.9859 18.5075 37.3414 18.9485C37.6834 19.3685 38.0434 19.9115 38.4679 20.5475L36.5944 21.7955ZM45.8749 31.25C45.8749 29.075 45.8629 28.2365 45.6649 27.5855L47.8174 26.93C48.1369 27.9815 48.1249 29.237 48.1249 31.2485L45.8749 31.25ZM38.7499 21.875C40.7614 21.875 42.0169 21.863 43.0684 22.1825L42.4144 24.335C41.7634 24.137 40.9249 24.125 38.7499 24.125V21.875ZM45.6649 27.5855C45.4322 26.8182 45.0139 26.1201 44.4469 25.5531C43.8799 24.9861 43.1818 24.5677 42.4144 24.335L43.0684 22.1825C44.189 22.5227 45.2099 23.1339 46.0379 23.962C46.866 24.7901 47.4772 25.8095 47.8174 26.93L45.6649 27.5855ZM35.7499 44.375C38.2429 44.375 40.0144 44.3735 41.3734 44.213C42.7069 44.0555 43.4944 43.757 44.0914 43.268L45.5194 45.008C44.4559 45.881 43.1839 46.2635 41.6374 46.448C40.1149 46.628 38.1874 46.625 35.7499 46.625V44.375ZM48.1249 34.25C48.1249 36.6875 48.1264 38.615 47.9464 40.1375C47.7634 41.6825 47.3809 42.9575 46.5064 44.0195L44.7679 42.593C45.2569 41.996 45.5554 41.207 45.7129 39.8735C45.8734 38.5145 45.8749 36.743 45.8749 34.25H48.1249ZM44.0914 43.268C44.3377 43.0653 44.5652 42.8392 44.7679 42.593L46.5064 44.0195C46.2094 44.3805 45.8814 44.71 45.5194 45.008L44.0914 43.268ZM18.1249 34.25C18.1249 36.743 18.1264 38.5145 18.2869 39.8735C18.4444 41.207 18.7429 41.996 19.2319 42.593L17.4919 44.0195C16.6189 42.956 16.2364 41.684 16.0519 40.1375C15.8719 38.615 15.8749 36.6875 15.8749 34.25H18.1249ZM28.2499 46.625C25.8124 46.625 23.8849 46.6265 22.3624 46.4465C20.8174 46.2635 19.5424 45.881 18.4804 45.0065L19.9054 43.268C20.5024 43.757 21.2929 44.0555 22.6264 44.213C23.9854 44.3735 25.7569 44.375 28.2499 44.375V46.625ZM19.2319 42.593C19.4347 42.8392 19.6592 43.0653 19.9054 43.268L18.4804 45.008C18.1194 44.711 17.7899 44.3815 17.4919 44.0195L19.2319 42.593ZM31.4599 19.625C30.6529 19.625 30.1249 19.625 29.7124 19.664C29.3239 19.7 29.1244 19.7645 28.9699 19.847L27.9094 17.8625C28.4194 17.591 28.9399 17.477 29.5039 17.4245C30.0439 17.3735 30.6934 17.375 31.4599 17.375V19.625ZM15.8749 31.25C15.8749 29.2385 15.8629 27.983 16.1809 26.9315L18.3349 27.5855C18.1369 28.2365 18.1249 29.075 18.1249 31.25H15.8749Z" fill="white"/>
<circle cx="32" cy="33.5" r="5" stroke="white" stroke-width="2"/>
<defs>
<linearGradient id="paint0_linear_114_786" x1="64" y1="32" x2="0" y2="32" gradientUnits="userSpaceOnUse">
<stop stop-color="#2150EC"/>
<stop offset="1" stop-color="#488BFF"/>
</linearGradient>
</defs>
</svg>
