<svg width="294" height="120" viewBox="0 0 294 120" fill="none" xmlns="http://www.w3.org/2000/svg">
<g clip-path="url(#clip0_660_1551)">
<path d="M4.00319 51.5599C4.00319 33.0253 18.9973 18 37.4935 18C55.9894 18 70.9837 33.0253 70.9837 51.5599V92.5469C70.9837 92.5469 70.9837 103 59.4543 103C52.866 103 38.0425 92.5469 38.0425 92.5469C38.0425 92.5469 25.5522 103 16.7679 103C3.4542 103 4.00319 92.5469 4.00319 92.5469V51.5599Z" fill="url(#paint0_linear_660_1551)"/>
<path d="M115.729 51.5599C115.729 33.0253 100.735 18 82.2387 18C63.7425 18 48.7485 33.0253 48.7485 51.5599V92.5469C48.7485 92.5469 48.7485 103 60.2779 103C66.8662 103 81.6897 92.5469 81.6897 92.5469C81.6897 92.5469 94.1799 103 102.964 103C116.278 103 115.729 92.5469 115.729 92.5469V51.5599Z" fill="url(#paint1_linear_660_1551)"/>
<path d="M82.2383 18C100.734 18 115.728 33.0253 115.728 51.5599V92.1929C115.679 90.3809 114.797 82.2314 102.964 82.2314C94.1795 82.2314 81.6893 92.5469 81.6893 92.5469C81.6731 92.5582 72.4128 99.0856 65.2821 101.818C64.3501 102.266 63.2661 102.611 62.0047 102.81C61.3841 102.933 60.8043 103 60.2775 103C60.1386 103 60.0014 102.998 59.8657 102.995C59.7301 102.998 59.5929 103 59.454 103C58.9269 103 58.3472 102.933 57.7265 102.81C56.4648 102.611 55.3808 102.266 54.4488 101.818C47.3185 99.0856 38.0581 92.5582 38.0422 92.5469C38.0422 92.5469 25.552 82.2314 16.7676 82.2314C4.93394 82.2314 4.05273 90.3809 4.00293 92.1929V51.5599C4.00293 33.0253 18.997 18 37.4932 18C46.0928 18 53.9352 21.2484 59.8657 26.5871C65.7963 21.2484 73.6385 18 82.2383 18Z" fill="url(#paint2_linear_660_1551)"/>
<path d="M115.729 51.5599C115.729 33.0253 100.735 18 82.2387 18C63.7425 18 48.7485 33.0253 48.7485 51.5599V92.5469C48.7485 92.5469 48.7485 103 60.2779 103C66.8662 103 81.6897 92.5469 81.6897 92.5469C81.6897 92.5469 94.1799 82.2314 102.964 82.2314C116.278 82.2314 115.729 92.5469 115.729 92.5469V51.5599Z" fill="url(#paint3_linear_660_1551)"/>
<path d="M42.4346 65.0389C44.8604 65.0389 46.8268 63.0684 46.8268 60.6376C46.8268 58.2069 44.8604 56.2363 42.4346 56.2363C40.0089 56.2363 38.0425 58.2069 38.0425 60.6376C38.0425 63.0684 40.0089 65.0389 42.4346 65.0389Z" fill="url(#paint4_linear_660_1551)"/>
<path d="M60.0035 65.0389C62.4292 65.0389 64.3956 63.0684 64.3956 60.6376C64.3956 58.2069 62.4292 56.2363 60.0035 56.2363C57.5778 56.2363 55.6113 58.2069 55.6113 60.6376C55.6113 63.0684 57.5778 65.0389 60.0035 65.0389Z" fill="url(#paint5_linear_660_1551)"/>
<path d="M77.5718 65.0389C79.9976 65.0389 81.964 63.0684 81.964 60.6376C81.964 58.2069 79.9976 56.2363 77.5718 56.2363C75.1461 56.2363 73.1797 58.2069 73.1797 60.6376C73.1797 63.0684 75.1461 65.0389 77.5718 65.0389Z" fill="url(#paint6_linear_660_1551)"/>
</g>
<path d="M142.036 84C140.818 84 139.79 83.581 138.952 82.7429C138.19 81.8286 137.886 80.7619 138.038 79.5429L142.95 41.1429C143.102 39.619 143.673 38.4762 144.663 37.7143C145.729 36.9524 146.871 36.5714 148.09 36.5714C149.308 36.5714 150.412 36.8762 151.402 37.4857C152.469 38.019 153.192 38.8571 153.573 40L162.596 65.6C162.977 66.5143 163.358 66.9714 163.739 66.9714C164.196 66.9714 164.576 66.5143 164.881 65.6L173.905 40C174.286 38.8571 174.971 38.019 175.961 37.4857C177.027 36.8762 178.131 36.5714 179.273 36.5714C180.492 36.5714 181.634 36.9524 182.7 37.7143C183.766 38.4762 184.375 39.619 184.528 41.1429L189.439 79.5429C189.592 80.7619 189.287 81.8286 188.526 82.7429C187.764 83.581 186.736 84 185.442 84C184.452 84 183.538 83.6571 182.7 82.9714C181.939 82.2857 181.482 81.4095 181.329 80.3429L178.816 52.1143C178.74 51.2 178.436 50.7429 177.903 50.7429C177.37 50.7429 176.989 51.1238 176.76 51.8857L168.536 74.6286C168.079 75.8476 167.432 76.7238 166.594 77.2571C165.757 77.7905 164.805 78.0571 163.739 78.0571C161.683 78.0571 160.122 76.9143 159.056 74.6286L150.717 51.8857C150.412 51.1238 150.032 50.7429 149.575 50.7429C149.27 50.7429 149.042 51.2 148.889 52.1143L146.148 80.3429C146.072 81.4095 145.615 82.2857 144.777 82.9714C144.016 83.6571 143.102 84 142.036 84Z" fill="url(#paint7_linear_660_1551)"/>
<path d="M198.893 84C197.903 84 197.028 83.6571 196.266 82.9714C195.505 82.2857 195.124 81.3714 195.124 80.2286C195.124 79.8476 195.2 79.3524 195.352 78.7429L209.63 40C210.164 38.7048 210.963 37.7143 212.029 37.0286C213.095 36.3429 214.238 36 215.456 36C216.674 36 217.817 36.3429 218.883 37.0286C220.025 37.7143 220.863 38.7048 221.396 40L236.588 78.7429C236.74 79.3524 236.816 79.8476 236.816 80.2286C236.816 81.3714 236.435 82.2857 235.674 82.9714C234.912 83.6571 234.037 84 233.047 84C232.361 84 231.638 83.8095 230.876 83.4286C230.191 83.1238 229.658 82.5905 229.277 81.8286L225.508 71.7714C225.432 71.3143 225.127 71.0857 224.594 71.0857H207.118C206.584 71.0857 206.242 71.3143 206.089 71.7714L202.663 81.8286C202.282 82.5905 201.711 83.1238 200.949 83.4286C200.264 83.8095 199.579 84 198.893 84ZM210.544 64.2286H220.825C221.281 64.2286 221.624 64.0762 221.853 63.7714C222.157 63.3905 222.233 62.9333 222.081 62.4L216.598 46.7429C216.37 45.981 216.027 45.6 215.57 45.6C215.037 45.6 214.656 45.981 214.428 46.7429L209.288 62.5143C209.135 62.9714 209.174 63.3905 209.402 63.7714C209.707 64.0762 210.087 64.2286 210.544 64.2286Z" fill="url(#paint8_linear_660_1551)"/>
<path d="M248.27 84C247.28 84 246.366 83.619 245.528 82.8571C244.691 82.1714 244.272 81.3333 244.272 80.3429V43.4286C244.272 41.3714 244.919 39.8095 246.214 38.7429C247.508 37.6762 248.955 37.1429 250.554 37.1429H262.662C265.251 37.1429 267.65 37.6762 269.858 38.7429C272.143 39.7333 273.97 41.219 275.341 43.2C276.712 45.181 277.397 47.619 277.397 50.5143C277.397 55.0095 275.95 58.5905 273.057 61.2571C270.239 63.9238 266.812 65.2571 262.776 65.2571H255.123C253.22 65.2571 252.268 66.4 252.268 68.6857V80.3429C252.268 81.3333 251.849 82.1714 251.011 82.8571C250.25 83.619 249.336 84 248.27 84ZM254.552 58.4H261.52C263.424 58.4 265.251 57.8286 267.003 56.6857C268.83 55.5429 269.744 53.5619 269.744 50.7429C269.744 48.5333 268.906 46.8952 267.231 45.8286C265.632 44.6857 263.881 44.1143 261.977 44.1143H254.895C252.991 44.1143 252.039 45.0286 252.039 46.8571V55.3143C252.039 57.3714 252.877 58.4 254.552 58.4Z" fill="url(#paint9_linear_660_1551)"/>
<path d="M290.002 84C289.012 84 288.098 83.6571 287.261 82.9714C286.423 82.3619 286.004 81.4476 286.004 80.2286V40.3429C286.004 39.0476 286.423 38.0952 287.261 37.4857C288.098 36.8762 289.012 36.5714 290.002 36.5714C291.068 36.5714 291.982 36.8762 292.744 37.4857C293.581 38.0952 294 39.0476 294 40.3429V80.2286C294 81.4476 293.581 82.3619 292.744 82.9714C291.982 83.6571 291.068 84 290.002 84Z" fill="url(#paint10_linear_660_1551)"/>
<defs>
<linearGradient id="paint0_linear_660_1551" x1="37.4918" y1="80.5809" x2="37.4918" y2="103" gradientUnits="userSpaceOnUse">
<stop stop-color="#081C4D"/>
<stop offset="1" stop-color="#337DFF"/>
</linearGradient>
<linearGradient id="paint1_linear_660_1551" x1="82.2404" y1="80.5809" x2="82.2404" y2="103" gradientUnits="userSpaceOnUse">
<stop stop-color="#081C4D"/>
<stop offset="1" stop-color="#337DFF"/>
</linearGradient>
<linearGradient id="paint2_linear_660_1551" x1="4.00293" y1="18" x2="115.898" y2="102.776" gradientUnits="userSpaceOnUse">
<stop stop-color="#57D5FF"/>
<stop offset="1" stop-color="#196DFF"/>
</linearGradient>
<linearGradient id="paint3_linear_660_1551" x1="90.474" y1="15.5243" x2="66.7792" y2="80.962" gradientUnits="userSpaceOnUse">
<stop stop-color="white" stop-opacity="0.5"/>
<stop offset="1" stop-color="#3EAAFF" stop-opacity="0"/>
</linearGradient>
<linearGradient id="paint4_linear_660_1551" x1="42.4346" y1="60.6376" x2="46.8359" y2="65.0298" gradientUnits="userSpaceOnUse">
<stop stop-color="#E9F2FF"/>
<stop offset="1" stop-color="#ADD2FF"/>
</linearGradient>
<linearGradient id="paint5_linear_660_1551" x1="60.0035" y1="60.6376" x2="64.4048" y2="65.0298" gradientUnits="userSpaceOnUse">
<stop stop-color="#E9F2FF"/>
<stop offset="1" stop-color="#ADD2FF"/>
</linearGradient>
<linearGradient id="paint6_linear_660_1551" x1="77.5718" y1="60.6376" x2="81.9731" y2="65.0298" gradientUnits="userSpaceOnUse">
<stop stop-color="#E9F2FF"/>
<stop offset="1" stop-color="#ADD2FF"/>
</linearGradient>
<linearGradient id="paint7_linear_660_1551" x1="338.941" y1="67.731" x2="95.3723" y2="67.731" gradientUnits="userSpaceOnUse">
<stop stop-color="#4C71E7"/>
<stop offset="1" stop-color="#4CC1FF"/>
</linearGradient>
<linearGradient id="paint8_linear_660_1551" x1="338.941" y1="67.731" x2="95.3723" y2="67.731" gradientUnits="userSpaceOnUse">
<stop stop-color="#4C71E7"/>
<stop offset="1" stop-color="#4CC1FF"/>
</linearGradient>
<linearGradient id="paint9_linear_660_1551" x1="338.941" y1="67.731" x2="95.3723" y2="67.731" gradientUnits="userSpaceOnUse">
<stop stop-color="#4C71E7"/>
<stop offset="1" stop-color="#4CC1FF"/>
</linearGradient>
<linearGradient id="paint10_linear_660_1551" x1="338.941" y1="67.731" x2="95.3723" y2="67.731" gradientUnits="userSpaceOnUse">
<stop stop-color="#4C71E7"/>
<stop offset="1" stop-color="#4CC1FF"/>
</linearGradient>
<clipPath id="clip0_660_1551">
<rect width="112" height="85" fill="white" transform="translate(4 18)"/>
</clipPath>
</defs>
</svg>
