<svg width="72" height="72" viewBox="0 0 72 72" fill="none" xmlns="http://www.w3.org/2000/svg">
<g clip-path="url(#clip0_654_184)">
<path d="M44.6541 14.9567C40.8026 8.30402 31.1973 8.30327 27.3456 14.9558L13.9448 37.8832C13.3882 38.8356 13.7798 40.0486 14.7547 40.5648C15.8775 41.1593 17.0926 40.6494 17.7291 39.5499L30.8075 16.9607C33.1185 12.9689 38.8812 12.9689 41.1922 16.9607L60.3172 49.9939C62.6326 53.9938 59.7457 58.9997 55.1239 58.9997H16.8758C12.254 58.9997 9.36715 53.9938 11.6825 49.9939L13.2812 47.2325C13.835 46.2759 13.5077 45.0513 12.5504 44.4986C11.5947 43.9468 10.3726 44.2734 9.81965 45.2285L8.22153 47.989C4.36188 54.6556 9.1725 62.9997 16.8758 62.9997H55.1239C62.8272 62.9997 67.6378 54.6556 63.7782 47.989L44.6541 14.9567Z" fill="#488BFF"/>
<path fill-rule="evenodd" clip-rule="evenodd" d="M36 44C35.2044 44 34.4413 43.6839 33.8787 43.1213C33.3161 42.5587 33 41.7956 33 41V26C33 25.2044 33.3161 24.4413 33.8787 23.8787C34.4413 23.3161 35.2044 23 36 23C36.7956 23 37.5587 23.3161 38.1213 23.8787C38.6839 24.4413 39 25.2044 39 26V41C39 41.7956 38.6839 42.5587 38.1213 43.1213C37.5587 43.6839 36.7956 44 36 44Z" fill="#488BFF"/>
<path d="M33 50.4744C33 49.6366 33.3328 48.8331 33.9253 48.2407C34.5177 47.6483 35.3212 47.3154 36.159 47.3154C36.9968 47.3154 37.8003 47.6483 38.3928 48.2407C38.9852 48.8331 39.318 49.6366 39.318 50.4744C39.318 51.3122 38.9852 52.1158 38.3928 52.7082C37.8003 53.3006 36.9968 53.6334 36.159 53.6334C35.3212 53.6334 34.5177 53.3006 33.9253 52.7082C33.3328 52.1158 33 51.3122 33 50.4744Z" fill="#488BFF"/>
</g>
<defs>
<clipPath id="clip0_654_184">
<rect width="72" height="72" fill="white"/>
</clipPath>
</defs>
</svg>
